<?xml version="1.0" standalone="no"?>
<!DOCTYPE svg PUBLIC "-//W3C//DTD SVG 20010904//EN"
 "http://www.w3.org/TR/2001/REC-SVG-20010904/DTD/svg10.dtd">
<svg version="1.0" xmlns="http://www.w3.org/2000/svg"
 width="149.000000pt" height="149.000000pt" viewBox="0 0 149.000000 149.000000"
 preserveAspectRatio="xMidYMid meet">
<metadata>
Created by potrace 1.16, written by Peter Selinger 2001-2019
</metadata>
<g transform="translate(0.000000,149.000000) scale(0.100000,-0.100000)"
fill="#000000" stroke="none">
<path d="M0 1419 c0 -75 -2 -74 52 -37 16 11 67 39 115 64 l87 44 -127 0 -127
0 0 -71z"/>
<path d="M1294 1445 c49 -25 110 -61 137 -80 27 -19 51 -35 54 -35 3 0 5 36 5
80 l0 80 -142 0 -142 0 88 -45z"/>
<path d="M810 1335 c10 -13 9 -15 -7 -15 -11 0 -29 -11 -41 -25 -12 -14 -31
-25 -43 -25 -12 0 -23 -8 -26 -20 -4 -13 -14 -20 -30 -20 -13 0 -21 4 -18 10
3 6 12 10 20 10 8 0 12 8 10 20 -2 11 0 20 6 20 5 0 9 -4 9 -10 0 -5 7 -7 15
-4 24 9 -1 44 -31 44 -14 0 -22 -4 -19 -10 3 -5 -3 -10 -15 -10 -12 0 -18 4
-15 10 4 6 -2 7 -17 1 -33 -11 -86 -96 -97 -155 -5 -28 -6 -85 -2 -126 l7 -75
26 55 c29 62 77 112 127 133 32 14 126 14 188 1 49 -10 123 -96 123 -142 0
-11 9 -30 19 -43 l19 -24 7 59 c8 64 -7 176 -32 236 -15 37 -56 85 -86 102
-10 5 -39 12 -64 14 -40 4 -44 3 -33 -11z"/>
<path d="M828 943 c-10 -2 -18 -13 -18 -23 0 -10 -2 -24 -5 -32 -11 -29 18
-48 80 -52 70 -5 89 5 98 51 9 47 -11 63 -81 62 -31 -1 -65 -3 -74 -6z"/>
<path d="M1018 842 c-6 -64 -37 -126 -82 -163 -27 -22 -67 -10 -84 24 -14 29
-32 34 -62 15 -15 -10 -23 -9 -40 7 -11 10 -23 15 -27 11 -4 -4 -1 -11 6 -15
11 -7 10 -13 -8 -32 -11 -12 -29 -24 -39 -25 -9 -2 -32 -6 -50 -9 -34 -6 -57
10 -109 80 l-22 30 0 -35 c0 -19 8 -69 18 -110 23 -90 17 -105 -49 -127 -25
-9 -63 -28 -85 -43 -57 -39 -169 -100 -250 -137 -38 -18 -85 -44 -102 -58
l-33 -26 0 -114 0 -115 745 0 745 0 0 103 0 104 -35 36 c-41 42 -75 61 -125
72 -19 4 -55 22 -80 39 -25 18 -70 45 -100 60 -44 22 -117 71 -173 116 -4 4 2
35 13 70 21 66 44 240 38 282 -2 12 -6 -5 -10 -40z m-455 -369 c35 -53 94
-113 111 -113 8 0 16 -3 18 -7 5 -12 106 -63 123 -63 18 0 20 -19 2 -26 -7 -2
-50 0 -96 5 -59 6 -92 15 -113 31 -16 12 -35 19 -42 17 -8 -3 -18 6 -25 19 -6
14 -7 23 -2 20 5 -3 0 11 -10 31 -20 39 -23 63 -13 101 9 31 17 28 47 -15z"/>
</g>
</svg>
